<?xml version="1.0" standalone="no"?>
<!DOCTYPE svg PUBLIC "-//W3C//DTD SVG 20010904//EN"
 "http://www.w3.org/TR/2001/REC-SVG-20010904/DTD/svg10.dtd">
<svg version="1.0" xmlns="http://www.w3.org/2000/svg"
 width="260.000000pt" height="260.000000pt" viewBox="0 0 260.000000 260.000000"
 preserveAspectRatio="xMidYMid meet">
<metadata>
Created by potrace 1.11, written by Peter Selinger 2001-2013
</metadata>
<g transform="translate(0.000000,260.000000) scale(0.100000,-0.100000)"
fill="#000000" stroke="none">
<path d="M0 1300 l0 -1300 1300 0 1300 0 0 1300 0 1300 -1300 0 -1300 0 0
-1300z m2370 905 l0 -65 -1060 0 -1060 0 0 65 0 65 1060 0 1060 0 0 -65z
m-1590 -426 c121 -19 195 -70 244 -167 39 -77 46 -146 46 -464 l0 -298 -64 0
-64 0 -7 60 c-4 33 -9 60 -12 60 -2 0 -24 -14 -49 -31 -24 -16 -78 -46 -119
-66 -129 -61 -286 -58 -390 8 -130 82 -152 270 -43 375 92 89 212 127 541 169
52 7 56 16 37 87 -31 109 -156 166 -305 139 -33 -6 -102 -31 -152 -55 -51 -25
-94 -42 -96 -38 -2 4 -16 28 -31 53 l-26 46 67 36 c83 43 176 75 252 86 80 12
98 12 171 0z m570 -19 c27 -15 43 -71 30 -105 -14 -38 -38 -54 -78 -55 -71 0
-107 85 -61 144 22 28 73 36 109 16z m999 -42 c0 -42 -8 -52 -309 -388 l-308
-345 319 -3 319 -2 0 -65 0 -65 -435 0 -435 0 0 40 c0 38 13 55 308 386 169
190 309 350 310 355 2 5 -111 9 -272 9 l-276 0 0 60 0 60 390 0 390 0 -1 -42z
m-999 -348 c27 -15 43 -71 30 -105 -14 -38 -38 -54 -78 -55 -71 0 -107 85 -61
144 22 28 73 36 109 16z m0 -360 c27 -15 43 -71 30 -105 -14 -38 -38 -54 -78
-55 -71 0 -107 85 -61 144 22 28 73 36 109 16z m1020 -625 l0 -65 -1060 0
-1060 0 0 65 0 65 1060 0 1060 0 0 -65z"/>
<path d="M820 1319 c-261 -30 -398 -95 -415 -196 -10 -61 17 -111 75 -143 36
-20 59 -24 120 -25 89 0 145 19 243 81 l67 44 0 125 c0 69 -3 124 -7 124 -5
-1 -42 -5 -83 -10z"/>
</g>
</svg>
