<?xml version="1.0" standalone="no"?>
<!DOCTYPE svg PUBLIC "-//W3C//DTD SVG 20010904//EN"
 "http://www.w3.org/TR/2001/REC-SVG-20010904/DTD/svg10.dtd">
<svg version="1.0" xmlns="http://www.w3.org/2000/svg"
 width="500.000000pt" height="500.000000pt" viewBox="0 0 500.000000 500.000000"
 preserveAspectRatio="xMidYMid meet">
<metadata>
Created by potrace 1.11, written by Peter Selinger 2001-2013
</metadata>
<g transform="translate(0.000000,500.000000) scale(0.100000,-0.100000)"
fill="#000000" stroke="none">
<path d="M0 2500 l0 -2500 2500 0 2500 0 0 2500 0 2500 -2500 0 -2500 0 0
-2500z m3292 1137 c66 -32 141 -109 171 -175 20 -43 22 -63 22 -237 0 -174 -2
-194 -22 -237 -30 -66 -105 -143 -172 -175 -50 -25 -67 -28 -161 -28 -92 0
-112 3 -160 26 -70 33 -132 95 -167 167 -28 56 -28 59 -28 247 0 188 0 191 28
247 67 137 177 200 343 195 74 -2 100 -8 146 -30z m-2105 -402 c78 -231 142
-426 142 -433 1 -10 -21 -12 -91 -10 l-91 3 -29 93 -29 92 -138 0 -138 0 -29
-95 -28 -95 -94 0 c-71 0 -93 3 -90 13 3 6 69 202 148 435 l143 423 91 -3 91
-3 142 -420z m533 -10 l0 -435 -90 0 -90 0 0 435 0 435 90 0 90 0 0 -435z
m878 368 l-3 -68 -122 -3 -123 -3 0 -364 0 -365 -90 0 -90 0 0 365 0 365 -120
0 -120 0 0 70 0 70 335 0 336 0 -3 -67z m1617 39 c28 -13 63 -35 78 -50 60
-57 88 -153 67 -231 -12 -45 -69 -116 -101 -126 -22 -7 -26 -25 -5 -25 21 0
74 -48 93 -84 11 -20 19 -70 24 -143 5 -87 12 -121 28 -148 l20 -35 -93 0
c-74 0 -96 3 -107 16 -8 10 -16 58 -19 128 -10 175 -30 196 -180 196 l-90 0 0
-170 0 -170 -90 0 -90 0 0 436 0 435 208 -3 c191 -3 211 -5 257 -26z m-2869
-923 c90 -43 79 -151 -19 -188 -43 -16 -181 -14 -224 4 -60 25 -73 42 -73 96
0 40 4 51 30 73 17 14 47 28 68 31 20 4 42 8 47 11 23 8 133 -9 171 -27z
m1684 9 c26 -9 50 -34 50 -52 0 -3 -19 -6 -41 -6 -28 0 -46 6 -55 18 -18 25
-114 24 -143 -2 -27 -24 -29 -86 -3 -108 40 -36 152 -33 152 3 0 15 -7 19 -40
19 -34 0 -40 3 -40 20 0 20 5 21 88 18 l87 -3 0 -44 c0 -41 -2 -45 -35 -57
-44 -16 -196 -18 -241 -3 -58 20 -79 46 -79 100 0 40 4 51 30 73 17 14 47 28
68 31 20 4 42 8 47 11 16 6 122 -6 155 -18z m-2180 -6 c45 -22 51 -54 15 -78
l-27 -17 26 -14 c15 -8 26 -22 26 -34 0 -11 5 -29 10 -40 10 -18 7 -19 -39
-19 -47 0 -51 2 -57 28 -3 15 -7 32 -9 38 -4 13 -52 24 -101 24 -34 0 -34 -1
-34 -45 l0 -45 -45 0 -45 0 0 110 0 110 123 0 c96 0 129 -4 157 -18z m952 6
c111 -33 119 -141 14 -189 -32 -15 -65 -19 -158 -19 l-118 0 0 110 0 110 111
0 c62 0 129 -5 151 -12z m498 -6 c45 -22 51 -54 15 -78 l-27 -17 26 -14 c15
-8 26 -22 26 -34 0 -11 5 -29 10 -40 10 -18 7 -19 -39 -19 -47 0 -51 2 -57 28
-3 15 -7 32 -9 38 -4 13 -52 24 -101 24 -34 0 -34 -1 -34 -45 l0 -45 -45 0
-45 0 0 110 0 110 123 0 c96 0 129 -4 157 -18z m280 -92 l0 -110 -45 0 -45 0
0 110 0 110 45 0 45 0 0 -110z m730 31 c0 -51 4 -82 13 -89 22 -18 75 -23 116
-12 l41 11 0 84 0 85 50 0 50 0 0 -76 c0 -41 -4 -83 -10 -93 -17 -32 -83 -51
-178 -51 -145 0 -182 31 -182 153 l0 67 50 0 50 0 0 -79z m700 59 c0 -19 -7
-20 -100 -20 l-100 0 0 -25 c0 -25 1 -25 85 -25 78 0 85 -2 85 -20 0 -18 -7
-20 -85 -20 -84 0 -85 0 -85 -25 l0 -25 100 0 c93 0 100 -1 100 -20 0 -19 -7
-20 -145 -20 l-145 0 0 110 0 110 145 0 c138 0 145 -1 145 -20z m410 8 c-1 -7
-43 -47 -94 -88 l-93 -75 96 -5 c81 -4 96 -8 99 -22 3 -17 -10 -18 -157 -18
-123 0 -161 3 -160 13 0 6 42 46 93 87 l93 75 -91 5 c-76 4 -91 8 -94 23 -3
16 9 17 152 17 118 0 156 -3 156 -12z m-2562 -760 c37 -23 71 -85 72 -130 0
-36 -17 -78 -42 -105 l-21 -22 31 -32 c34 -35 56 -106 47 -153 -11 -53 -52
-112 -89 -130 -23 -11 -61 -16 -120 -16 l-86 0 0 305 0 305 86 0 c71 0 93 -4
122 -22z m244 -265 l3 -288 138 -3 c104 -2 137 -6 134 -15 -2 -9 -47 -13 -155
-15 l-152 -3 0 299 c0 164 3 302 7 305 3 4 10 7 15 7 4 0 9 -129 10 -287z
m628 264 c30 -16 51 -37 67 -67 21 -40 23 -55 23 -214 0 -158 -2 -175 -22
-216 -56 -110 -218 -122 -285 -21 -22 32 -23 43 -23 233 0 216 5 239 56 273
62 40 124 44 184 12z m458 -4 c42 -31 73 -83 70 -118 -4 -42 -19 -37 -35 12
-8 23 -28 54 -45 68 -55 47 -159 27 -194 -37 -10 -16 -13 -77 -14 -209 0 -176
1 -188 22 -214 23 -30 74 -55 110 -55 65 0 128 70 128 142 l0 37 -67 3 c-55 2
-68 6 -71 21 -3 15 6 17 82 17 l86 0 0 -72 c0 -84 -19 -126 -72 -158 -46 -28
-131 -27 -182 3 -69 39 -76 66 -76 274 0 104 5 194 11 210 14 37 47 72 84 89
41 20 129 13 163 -13z m-1673 -368 c0 -6 -46 -11 -112 -13 -97 -2 -113 0 -113
13 0 13 16 15 113 13 66 -2 112 -7 112 -13z m2090 0 c0 -6 -46 -11 -112 -13
-97 -2 -113 0 -113 13 0 13 16 15 113 13 66 -2 112 -7 112 -13z"/>
<path d="M3055 3520 c-31 -13 -63 -47 -87 -93 -21 -38 -23 -56 -23 -197 0
-149 1 -157 28 -210 34 -69 66 -92 133 -98 68 -6 95 1 135 35 53 45 71 101 77
233 7 180 -19 264 -97 317 -26 17 -48 23 -90 22 -31 0 -65 -4 -76 -9z"/>
<path d="M947 3400 c-5 -14 -66 -205 -82 -257 -6 -23 -5 -23 85 -23 l92 0 -7
28 c-16 74 -83 265 -88 252z"/>
<path d="M3930 3400 l0 -120 95 0 c89 0 96 2 126 28 59 53 48 161 -21 197 -19
10 -58 15 -115 15 l-85 0 0 -120z"/>
<path d="M1170 2693 c-33 -12 -50 -37 -50 -73 0 -61 59 -92 138 -71 44 12 52
24 52 82 0 36 -3 41 -35 55 -35 14 -77 17 -105 7z"/>
<path d="M660 2665 c0 -24 2 -25 64 -25 67 0 86 10 66 35 -8 10 -32 15 -71 15
-56 0 -59 -1 -59 -25z"/>
<path d="M1630 2620 l0 -70 58 0 c78 0 102 17 102 75 0 55 -16 65 -99 65 l-61
0 0 -70z"/>
<path d="M2110 2665 c0 -24 2 -25 64 -25 67 0 86 10 66 35 -8 10 -32 15 -71
15 -56 0 -59 -1 -59 -25z"/>
<path d="M1680 1834 l0 -116 75 4 c64 3 79 7 101 29 35 36 42 94 14 137 -25
41 -73 62 -140 62 l-50 0 0 -116z"/>
<path d="M1680 1540 l0 -140 64 0 c49 0 71 5 97 23 63 41 86 124 54 191 -23
48 -61 66 -144 66 l-71 0 0 -140z"/>
<path d="M2604 1930 c-11 -4 -34 -24 -52 -44 l-32 -37 0 -172 c0 -190 8 -220
67 -250 61 -32 107 -25 154 22 l39 39 0 187 0 187 -39 39 c-32 32 -45 39 -77
38 -22 0 -48 -4 -60 -9z"/>
</g>
</svg>
